{"title":"The.3.Musketeers.1948.HQTV.720p.x264.AC3.[FrOnkY]","uid":9686769,"size":2855177362,"categoryP":"video","categoryS":"hd___movies","magnet":"?xt=urn:btih:1d0cace43e522362fbbdc9fe039ff5a94b89e94d&amp;dn=The.3.Musketeers.1948.HQTV.720p.x264.AC3.%5BFrOnkY%5D&amp;tr=udp%3A%2F%2Ftracker.openbittorrent.com%3A80&amp;tr=udp%3A%2F%2Fopen.demonii.com%3A1337&amp;tr=udp%3A%2F%2Ftracker.coppersurfer.tk%3A6969&amp;tr=udp%3A%2F%2Fexodus.desync.com%3A6969","seeders":0,"leechers":1,"uploader":"HDmEntEs","files":-1,"time":1393781891,"description":"Mightiest of All Romantic Adventures!\n\n\nThe.3.Musketeers.(Los.3.Mosqueteros).1948.HQTV.720p.x264.AC3.[FrOnkY].mkv\n\nFormat                                   : Matroska\nFormat version                           : Version 2\nFile size                                : 2.66 GiB\nDuration                                 : 2h 5mn\nOverall bit rate                         : 3 029 Kbps\nWriting application                      : mkvmerge v5.4.0 ('Piper') built on Mar 10 2012 13:34:39\nWriting library                          : libebml v1.2.3 + libmatroska v1.3.0\nAttachment                               : Yes / Yes / Yes / Yes / Yes\n\nVideo\nID                                       : 1\nFormat                                   : AVC\nFormat/Info                              : Advanced Video Codec\nFormat profile                           : &lt;a class=&quot;__cf_email__&quot; href=&quot;/cdn-cgi/l/email-protection&quot; data-cfemail=&quot;0149686669414d352f30&quot;&gt;[email&amp;#160;protected]&lt;/a&gt;&lt;script cf-hash='f9e31' type=&quot;text/javascript&quot;&gt;\n/* &lt;![CDATA[ */!function(){try{var t=&quot;currentScript&quot;in document?document.currentScript:function(){for(var t=document.getElementsByTagName(&quot;script&quot;),e=t.length;e--;)if(t[e].getAttribute(&quot;cf-hash&quot;))return t[e]}();if(t&amp;&amp;t.previousSibling){var e,r,n,i,c=t.previousSibling,a=c.getAttribute(&quot;data-cfemail&quot;);if(a){for(e=&quot;&quot;,r=parseInt(a.substr(0,2),16),n=2;a.length-n;n+=2)i=parseInt(a.substr(n,2),16)^r,e+=String.fromCharCode(i);e=document.createTextNode(e),c.parentNode.replaceChild(e,c)}}}catch(u){}}();/* ]]&gt; */&lt;/script&gt;\nFormat settings, CABAC                   : Yes\nFormat settings, ReFrames                : 12 frames\nCodec ID                                 : V_MPEG4/ISO/AVC\nDuration                                 : 2h 5mn\nBit rate                                 : 2 584 Kbps\nWidth                                    : 960 pixels\nHeight                                   : 720 pixels\nDisplay aspect ratio                     : 4:3\nFrame rate mode                          : Constant\nFrame rate                               : 23.976 fps\nColor space                              : YUV\nChroma subsampling                       : 4:2:0\nBit depth                                : 8 bits\nScan type                                : Progressive\nBits/(Pixel*Frame)                       : 0.156\nStream size                              : 2.27 GiB (85%)\nLanguage                                 : English\nDefault                                  : Yes\nForced                                   : No\n\nAudio #1\nID                                       : 2\nFormat                                   : AC-3\nFormat/Info                              : Audio Coding 3\nMode extension                           : CM (complete main)\nFormat settings, Endianness              : Big\nCodec ID                                 : A_AC3\nDuration                                 : 2h 5mn\nBit rate mode                            : Constant\nBit rate                                 : 192 Kbps\nChannel(s)                               : 2 channels\nChannel positions                        : Front: L R\nSampling rate                            : 48.0 KHz\nBit depth                                : 16 bits\nStream size                              : 173 MiB (6%)\nLanguage                                 : Spanish\nDefault                                  : Yes\nForced                                   : No\n\nAudio #2\nID                                       : 3\nFormat                                   : AC-3\nFormat/Info                              : Audio Coding 3\nMode extension                           : CM (complete main)\nFormat settings, Endianness              : Big\nCodec ID                                 : A_AC3\nDuration                                 : 2h 5mn\nBit rate mode                            : Constant\nBit rate                                 : 192 Kbps\nChannel(s)                               : 2 channels\nChannel positions                        : Front: L R\nSampling rate                            : 48.0 KHz\nBit depth                                : 16 bits\nStream size                              : 173 MiB (6%)\nLanguage                                 : English\nDefault                                  : No\nForced                                   : No\n\nText #1\nID                                       : 4\nFormat                                   : UTF-8\nCodec ID                                 : S_TEXT/UTF8\nCodec ID/Info                            : UTF-8 Plain Text\nTitle                                    : for\nLanguage                                 : Spanish\nDefault                                  : Yes\nForced                                   : No\n\nText #2\nID                                       : 5\nFormat                                   : UTF-8\nCodec ID                                 : S_TEXT/UTF8\nCodec ID/Info                            : UTF-8 Plain Text\nLanguage                                 : Spanish\nDefault                                  : No\nForced                                   : No\n\nText #3\nID                                       : 6\nFormat                                   : UTF-8\nCodec ID                                 : S_TEXT/UTF8\nCodec ID/Info                            : UTF-8 Plain Text\nLanguage                                 : English\nDefault                                  : No\nForced                                   : No\n\nText #4\nID                                       : 7\nFormat                                   : UTF-8\nCodec ID                                 : S_TEXT/UTF8\nCodec ID/Info                            : UTF-8 Plain Text\nLanguage                                 : French\nDefault                                  : No\nForced                                   : No\n\nMenu #1\n00:00:00.000                             : en:Chapter 01\n00:01:43.771                             : en:Chapter 02\n00:05:34.251                             : en:Chapter 03\n00:10:20.227                             : en:Chapter 04\n00:14:50.558                             : en:Chapter 05\n00:18:27.108                             : en:Chapter 06\n00:23:09.223                             : en:Chapter 07\n00:26:30.800                             : en:Chapter 08\n00:29:55.921                             : en:Chapter 09\n00:34:20.519                             : en:Chapter 10\n00:39:39.422                             : en:Chapter 11\n00:43:55.136                             : en:Chapter 12\n00:46:22.324                             : en:Chapter 13\n00:50:07.383                             : en:Chapter 14\n00:55:18.277                             : en:Chapter 15\n00:56:54.040                             : en:Chapter 16\n01:02:13.484                             : en:Chapter 17\n01:05:50.701                             : en:Chapter 18\n01:09:02.143                             : en:Chapter 19\n01:14:04.445                             : en:Chapter 20\n01:17:49.337                             : en:Chapter 21\n01:24:55.012                             : en:Chapter 22\n01:30:03.946                             : en:Chapter 23\n01:35:54.130                             : en:Chapter 24\n01:37:57.044                             : en:Chapter 25\n01:43:29.835                             : en:Chapter 26\n01:46:37.398                             : en:Chapter 27\n01:51:13.424                             : en:Chapter 28\n01:55:05.489                             : en:Chapter 29\n01:59:32.590                             : en:Chapter 30\n01:54:37.948                             : en:Chapter 31\n01:57:34.228                             : en:Chapter 32\n\n\nSCREENS\n &lt;a href=&quot;\nhttp://box.jisko.net/i/6d02f4e1.png&quot; rel=&quot;nofollow&quot; target=&quot;_NEW&quot;&gt;\nhttp://box.jisko.net/i/6d02f4e1.png&lt;/a&gt;\n\nDVD - HQTV\n &lt;a href=&quot;\nhttp://box.jisko.net/i/2d64cf8d.png&quot; rel=&quot;nofollow&quot; target=&quot;_NEW&quot;&gt;\nhttp://box.jisko.net/i/2d64cf8d.png&lt;/a&gt;\n &lt;a href=&quot;\nhttp://box.jisko.net/i/b3562901.png&quot; rel=&quot;nofollow&quot; target=&quot;_NEW&quot;&gt;\nhttp://box.jisko.net/i/b3562901.png&lt;/a&gt;","torrent":{"xt":"urn:btih:1d0cace43e522362fbbdc9fe039ff5a94b89e94d","amp;dn":"The.3.Musketeers.1948.HQTV.720p.x264.AC3.%5BFrOnkY%5D","amp;tr":["udp%3A%2F%2Ftracker.openbittorrent.com%3A80","udp%3A%2F%2Fopen.demonii.com%3A1337","udp%3A%2F%2Ftracker.coppersurfer.tk%3A6969","udp%3A%2F%2Fexodus.desync.com%3A6969"],"infoHash":"1d0cace43e522362fbbdc9fe039ff5a94b89e94d","infoHashBuffer":{"type":"Buffer","data":[29,12,172,228,62,82,35,98,251,189,201,254,3,159,245,169,75,137,233,77]},"announce":[],"urlList":[]}}